<svg width="24" height="24" viewBox="0 0 24 24" fill="none" xmlns="http://www.w3.org/2000/svg">
<path d="M2 6.66667C2 5.95942 2.26339 5.28115 2.73223 4.78105C3.20107 4.28095 3.83696 4 4.5 4H19.5C20.163 4 20.7989 4.28095 21.2678 4.78105C21.7366 5.28115 22 5.95942 22 6.66667V13.3333H2V6.66667ZM16.375 8C16.2092 8 16.0503 8.07024 15.9331 8.19526C15.8158 8.32029 15.75 8.48986 15.75 8.66667V10C15.75 10.1768 15.8158 10.3464 15.9331 10.4714C16.0503 10.5964 16.2092 10.6667 16.375 10.6667H18.875C19.0408 10.6667 19.1997 10.5964 19.3169 10.4714C19.4342 10.3464 19.5 10.1768 19.5 10V8.66667C19.5 8.48986 19.4342 8.32029 19.3169 8.19526C19.1997 8.07024 19.0408 8 18.875 8H16.375ZM2 16V17.3333C2 18.0406 2.26339 18.7189 2.73223 19.219C3.20107 19.719 3.83696 20 4.5 20H19.5C20.163 20 20.7989 19.719 21.2678 19.219C21.7366 18.7189 22 18.0406 22 17.3333V16H2Z" fill="#8F8F8F"/>
</svg>
