<svg width="24" height="24" viewBox="0 0 24 24" fill="none" xmlns="http://www.w3.org/2000/svg">
<path d="M20 4H4C2.897 4 2 4.897 2 6V18C2 19.103 2.897 20 4 20H20C21.103 20 22 19.103 22 18V6C22 4.897 21.103 4 20 4ZM8.715 8C9.866 8 10.715 8.849 10.715 10C10.715 11.151 9.866 12 8.715 12C7.564 12 6.715 11.151 6.715 10C6.715 8.849 7.563 8 8.715 8ZM12.43 16H5V15.535C5 14.162 6.676 12.75 8.715 12.75C10.754 12.75 12.43 14.162 12.43 15.535V16ZM19 15H15V13H19V15ZM19 11H14V9H19V11Z" fill="#8F8F8F"/>
</svg>
