<svg width="24" height="24" viewBox="0 0 24 24" fill="none" xmlns="http://www.w3.org/2000/svg">
<path d="M18.6533 3.46212C18.7002 3.13463 18.6147 2.80199 18.4158 2.53736C18.3173 2.40632 18.1939 2.29594 18.0526 2.2125C17.9114 2.12905 17.755 2.07419 17.5925 2.05104C17.43 2.02789 17.2645 2.03691 17.1055 2.07758C16.9465 2.11824 16.797 2.18976 16.6657 2.28806C16.4005 2.48657 16.2252 2.78207 16.1783 3.10956L15.6183 7.03432H9.81L10.32 3.46711C10.3496 3.30224 10.3456 3.1331 10.3082 2.9698C10.2709 2.8065 10.201 2.65238 10.1026 2.51663C10.0043 2.38088 9.87958 2.26628 9.7359 2.17967C9.59222 2.09307 9.43252 2.03622 9.26635 2.01254C9.10017 1.98885 8.93091 1.9988 8.76867 2.0418C8.60644 2.0848 8.45454 2.15997 8.32205 2.26281C8.18955 2.36566 8.07917 2.49408 7.9975 2.64042C7.91583 2.78675 7.86453 2.948 7.84667 3.11455L7.28333 7.03266H4.91667C4.58515 7.03244 4.26712 7.16363 4.03254 7.39739C3.79796 7.63114 3.66605 7.9483 3.66583 8.2791C3.66561 8.6099 3.7971 8.92723 4.03136 9.1613C4.26562 9.39536 4.58348 9.52699 4.915 9.52721H6.92667L6.21333 14.5163H3.25C2.91848 14.5163 2.60054 14.6477 2.36612 14.8816C2.1317 15.1155 2 15.4328 2 15.7636C2 16.0944 2.1317 16.4116 2.36612 16.6455C2.60054 16.8794 2.91848 17.0109 3.25 17.0109H5.85833L5.34833 20.5764C5.32513 20.7386 5.33417 20.9037 5.37492 21.0624C5.41568 21.221 5.48736 21.3701 5.58587 21.5012C5.68437 21.6322 5.80778 21.7426 5.94904 21.826C6.09031 21.9095 6.24666 21.9643 6.40917 21.9875C6.57168 22.0106 6.73717 22.0016 6.89619 21.9609C7.0552 21.9203 7.20464 21.8488 7.33596 21.7505C7.46727 21.6522 7.5779 21.529 7.66153 21.3881C7.74515 21.2471 7.80013 21.0911 7.82333 20.929L8.38333 17.0109H14.1917L13.6817 20.5764C13.6585 20.7386 13.6675 20.9037 13.7083 21.0624C13.749 21.221 13.8207 21.3701 13.9192 21.5012C14.0177 21.6322 14.1411 21.7426 14.2824 21.826C14.4236 21.9095 14.58 21.9643 14.7425 21.9875C14.905 22.0106 15.0705 22.0016 15.2295 21.9609C15.3885 21.9203 15.538 21.8488 15.6693 21.7505C15.8006 21.6522 15.9112 21.529 15.9949 21.3881C16.0785 21.2471 16.1335 21.0911 16.1567 20.929L16.7183 17.0109H19.0833C19.4149 17.0109 19.7328 16.8794 19.9672 16.6455C20.2016 16.4116 20.3333 16.0944 20.3333 15.7636C20.3333 15.4328 20.2016 15.1155 19.9672 14.8816C19.7328 14.6477 19.4149 14.5163 19.0833 14.5163H17.0733L17.7867 9.52721L20.75 9.52887C21.0815 9.52887 21.3995 9.39746 21.6339 9.16355C21.8683 8.92964 22 8.61239 22 8.28159C22 7.9508 21.8683 7.63355 21.6339 7.39964C21.3995 7.16573 21.0815 7.03432 20.75 7.03432H18.1433L18.6533 3.46212ZM15.2617 9.52887L14.5483 14.5163H8.74L9.45333 9.52721H15.2617V9.52887Z" fill="#8F8F8F"/>
</svg>
