<svg width="24" height="24" viewBox="0 0 24 24" fill="none" xmlns="http://www.w3.org/2000/svg">
<path d="M15.3333 11.5C14.7019 11.5 14.0963 11.2366 13.6497 10.7678C13.2032 10.2989 12.9524 9.66304 12.9524 9C12.9524 8.33696 13.2032 7.70107 13.6497 7.23223C14.0963 6.76339 14.7019 6.5 15.3333 6.5C15.9648 6.5 16.5704 6.76339 17.0169 7.23223C17.4634 7.70107 17.7143 8.33696 17.7143 9C17.7143 9.66304 17.4634 10.2989 17.0169 10.7678C16.5704 11.2366 15.9648 11.5 15.3333 11.5V11.5ZM8.66667 9C8.66667 14.25 15.3333 22 15.3333 22C15.3333 22 22 14.25 22 9C22 5.13 19.019 2 15.3333 2C11.6476 2 8.66667 5.13 8.66667 9ZM6.7619 7L2 12L6.7619 17V7Z" fill="#8F8F8F"/>
</svg>
