<svg width="18" height="24" viewBox="0 0 18 24" fill="none" xmlns="http://www.w3.org/2000/svg">
<path d="M8.17778 21.6002C2.12356 13.3684 1 12.5243 1 9.50007C1 5.35753 4.58133 2 9 2C13.4187 2 17 5.35753 17 9.50007C17 12.5243 15.8764 13.3668 9.82222 21.5968C9.73028 21.721 9.60772 21.8225 9.46495 21.8927C9.32219 21.9628 9.16346 21.9997 9.00226 22C8.84106 22.0003 8.68216 21.9641 8.53907 21.8945C8.39599 21.8249 8.27296 21.7239 8.18044 21.6002L8.17867 21.5968L8.17778 21.6002ZM9 12.6251C9.88406 12.6251 10.7319 12.2959 11.357 11.7098C11.9821 11.1237 12.3333 10.3289 12.3333 9.50007C12.3333 8.67126 11.9821 7.8764 11.357 7.29034C10.7319 6.70428 9.88406 6.37504 9 6.37504C8.11595 6.37504 7.2681 6.70428 6.64298 7.29034C6.01786 7.8764 5.66667 8.67126 5.66667 9.50007C5.66667 10.3289 6.01786 11.1237 6.64298 11.7098C7.2681 12.2959 8.11595 12.6251 9 12.6251V12.6251Z" fill="#8F8F8F"/>
</svg>
