<svg width="24" height="24" viewBox="0 0 24 24" fill="none" xmlns="http://www.w3.org/2000/svg">
<path d="M23 7.7856V17.85C23 19.59 21.6395 21 19.9605 21H4.03947C3.23336 21 2.46025 20.6681 1.89024 20.0774C1.32023 19.4866 1 18.6854 1 17.85V7.7856L11.6515 13.8576C11.8686 13.9812 12.132 13.9812 12.3485 13.8576L23 7.785V7.7856ZM19.9605 3C20.754 3.00008 21.5159 3.32169 22.0836 3.89615C22.6513 4.4706 22.9798 5.25235 22.9988 6.0744L12 12.3444L1.00116 6.0738L1.00232 6.0198C1.03474 5.20755 1.36891 4.43975 1.93495 3.87695C2.50099 3.31414 3.25506 2.99992 4.03947 3H19.9605Z" fill="#8F8F8F"/>
</svg>
