<svg width="24" height="24" viewBox="0 0 24 24" fill="none" xmlns="http://www.w3.org/2000/svg">
<path d="M21.799 6.62778L19.424 4.59444C19.2626 4.47933 19.0871 4.39064 18.903 4.33111C18.7196 4.26516 18.5287 4.2285 18.336 4.22222H11.5L12.301 9.77778H18.336C18.5 9.77778 18.705 9.73667 18.902 9.66889C19.099 9.60111 19.289 9.50778 19.423 9.40667L21.798 7.37111C21.933 7.27 22 7.13556 22 7C22 6.86444 21.933 6.73 21.799 6.62778V6.62778ZM10.5 2H9.5C9.36739 2 9.24021 2.05853 9.14645 2.16272C9.05268 2.26691 9 2.40821 9 2.55556V6.44444H5.664C5.498 6.44444 5.294 6.48556 5.097 6.55444C4.899 6.62111 4.71 6.71333 4.576 6.81667L2.201 8.85C2.066 8.95111 2 9.08667 2 9.22222C2 9.35667 2.066 9.49111 2.201 9.59444L4.576 11.63C4.71 11.7311 4.899 11.8244 5.097 11.8911C5.294 11.9589 5.498 12 5.664 12H9V21.4444C9 21.5918 9.05268 21.7331 9.14645 21.8373C9.24021 21.9415 9.36739 22 9.5 22H10.5C10.6326 22 10.7598 21.9415 10.8536 21.8373C10.9473 21.7331 11 21.5918 11 21.4444V2.55556C11 2.40821 10.9473 2.26691 10.8536 2.16272C10.7598 2.05853 10.6326 2 10.5 2V2Z" fill="#8F8F8F"/>
</svg>
