<svg width="23" height="24" viewBox="0 0 23 24" fill="none" xmlns="http://www.w3.org/2000/svg">
<path d="M21.8836 5.31473C21.9612 5.38914 22 5.4747 22 5.57143C22 5.66815 21.9612 5.75372 21.8836 5.82813L20.2421 7.40179C20.0248 7.61012 19.761 7.71429 19.4505 7.71429H3.80442C3.60264 7.71429 3.42802 7.6436 3.28056 7.50223C3.1331 7.36086 3.05937 7.19345 3.05937 7V4.14286C3.05937 3.9494 3.1331 3.78199 3.28056 3.64063C3.42802 3.49926 3.60264 3.42857 3.80442 3.42857H10.5099V2.71429C10.5099 2.52083 10.5836 2.35342 10.7311 2.21205C10.8785 2.07068 11.0532 2 11.2549 2H12.7451C12.9468 2 13.1215 2.07068 13.2689 2.21205C13.4164 2.35342 13.4901 2.52083 13.4901 2.71429V3.42857H19.4505C19.761 3.42857 20.0248 3.53274 20.2421 3.74107L21.8836 5.31473ZM10.5099 15.5714H13.4901V21.2857C13.4901 21.4792 13.4164 21.6466 13.2689 21.7879C13.1215 21.9293 12.9468 22 12.7451 22H11.2549C11.0532 22 10.8785 21.9293 10.7311 21.7879C10.5836 21.6466 10.5099 21.4792 10.5099 21.2857V15.5714ZM20.1956 10.5714C20.3974 10.5714 20.572 10.6421 20.7194 10.7835C20.8669 10.9249 20.9406 11.0923 20.9406 11.2857V14.1429C20.9406 14.3363 20.8669 14.5037 20.7194 14.6451C20.572 14.7865 20.3974 14.8571 20.1956 14.8571H4.54948C4.23904 14.8571 3.97516 14.753 3.75786 14.5446L2.11641 12.971C2.0388 12.8966 2 12.811 2 12.7143C2 12.6176 2.0388 12.532 2.11641 12.4576L3.75786 10.8839C3.97516 10.6756 4.23904 10.5714 4.54948 10.5714H10.5099V8.42857H13.4901V10.5714H20.1956Z" fill="#8F8F8F"/>
</svg>
