<svg width="24" height="24" viewBox="0 0 24 24" fill="none" xmlns="http://www.w3.org/2000/svg">
<path d="M10.1252 18.2498C11.8541 18.2525 13.5385 17.7014 14.9315 16.6773H14.9302C14.9677 16.7273 15.0077 16.7748 15.0527 16.8211L19.8653 21.6335C20.0997 21.8681 20.4177 21.9999 20.7493 22C21.0809 22.0001 21.3989 21.8685 21.6335 21.6341C21.868 21.3997 21.9999 21.0818 22 20.7502C22.0001 20.4186 21.8685 20.1006 21.6341 19.866L16.8215 15.0536C16.7768 15.0084 16.7288 14.9666 16.6778 14.9286C17.7016 13.5364 18.2527 11.853 18.2503 10.1249C18.2496 7.97024 17.3934 5.90403 15.8698 4.38046C14.3462 2.85689 12.2799 2.00066 10.1252 2C7.97023 2 5.90356 2.85601 4.3798 4.37973C2.85604 5.90344 2 7.97004 2 10.1249C2 12.2798 2.85604 14.3464 4.3798 15.8701C5.90356 17.3938 7.97023 18.2498 10.1252 18.2498V18.2498ZM10.1252 7.60243C12.2052 5.51121 17.4065 9.16991 10.1252 13.8749C2.84377 9.16991 8.04511 5.51246 10.1252 7.60243V7.60243Z" fill="#4B4B4B"/>
</svg>
