<svg width="24" height="24" viewBox="0 0 24 24" fill="none" xmlns="http://www.w3.org/2000/svg">
<path fill-rule="evenodd" clip-rule="evenodd" d="M5.25 15.3333C5.05109 15.3333 4.86032 15.2631 4.71967 15.1381C4.57902 15.013 4.5 14.8435 4.5 14.6667V4C4.5 3.82319 4.57902 3.65362 4.71967 3.5286C4.86032 3.40357 5.05109 3.33333 5.25 3.33333H18.75C18.9489 3.33333 19.1397 3.40357 19.2803 3.5286C19.421 3.65362 19.5 3.82319 19.5 4V14.6667C19.5 14.8435 19.421 15.013 19.2803 15.1381C19.1397 15.2631 18.9489 15.3333 18.75 15.3333H15.75C15.5511 15.3333 15.3603 15.4036 15.2197 15.5286C15.079 15.6536 15 15.8232 15 16C15 16.1768 15.079 16.3464 15.2197 16.4714C15.3603 16.5964 15.5511 16.6667 15.75 16.6667H18.75C19.3467 16.6667 19.919 16.456 20.341 16.0809C20.7629 15.7058 21 15.1971 21 14.6667V4C21 3.46957 20.7629 2.96086 20.341 2.58579C19.919 2.21071 19.3467 2 18.75 2H5.25C4.65326 2 4.08097 2.21071 3.65901 2.58579C3.23705 2.96086 3 3.46957 3 4V14.6667C3 15.1971 3.23705 15.7058 3.65901 16.0809C4.08097 16.456 4.65326 16.6667 5.25 16.6667H8.25C8.44891 16.6667 8.63968 16.5964 8.78033 16.4714C8.92098 16.3464 9 16.1768 9 16C9 15.8232 8.92098 15.6536 8.78033 15.5286C8.63968 15.4036 8.44891 15.3333 8.25 15.3333H5.25Z" fill="#4B4B4B"/>
<path fill-rule="evenodd" clip-rule="evenodd" d="M11.469 7.528C11.5387 7.46591 11.6214 7.41665 11.7126 7.38305C11.8037 7.34944 11.9014 7.33214 12 7.33214C12.0987 7.33214 12.1963 7.34944 12.2875 7.38305C12.3786 7.41665 12.4613 7.46591 12.531 7.528L17.031 11.528C17.1718 11.6532 17.2509 11.823 17.2509 12C17.2509 12.177 17.1718 12.3468 17.031 12.472C16.8902 12.5972 16.6992 12.6675 16.5 12.6675C16.3008 12.6675 16.1098 12.5972 15.969 12.472L12.75 9.60933V21.3333C12.75 21.5101 12.671 21.6797 12.5303 21.8047C12.3897 21.9298 12.1989 22 12 22C11.8011 22 11.6103 21.9298 11.4697 21.8047C11.329 21.6797 11.25 21.5101 11.25 21.3333V9.60933L8.031 12.472C7.89017 12.5972 7.69917 12.6675 7.5 12.6675C7.30084 12.6675 7.10983 12.5972 6.969 12.472C6.82817 12.3468 6.74905 12.177 6.74905 12C6.74905 11.823 6.82817 11.6532 6.969 11.528L11.469 7.528Z" fill="#4B4B4B"/>
</svg>
