<svg width="24" height="24" viewBox="0 0 24 24" fill="none" xmlns="http://www.w3.org/2000/svg">
<path d="M12 6C11.2089 6 10.4355 6.20527 9.77772 6.58986C9.11992 6.97444 8.60723 7.52107 8.30448 8.16061C8.00173 8.80015 7.92252 9.50388 8.07686 10.1828C8.2312 10.8617 8.61216 11.4854 9.17157 11.9749C9.73098 12.4644 10.4437 12.7977 11.2196 12.9327C11.9956 13.0678 12.7998 12.9985 13.5307 12.7336C14.2616 12.4687 14.8864 12.0201 15.3259 11.4445C15.7654 10.8689 16 10.1922 16 9.5C16 8.57174 15.5786 7.6815 14.8284 7.02513C14.0783 6.36875 13.0609 6 12 6Z" fill="#8F8F8F"/>
<path d="M12 2C10.0222 2 8.08879 2.58649 6.4443 3.6853C4.79981 4.78412 3.51809 6.3459 2.76121 8.17316C2.00433 10.0004 1.8063 12.0111 2.19215 13.9509C2.578 15.8907 3.53041 17.6725 4.92894 19.0711C6.32746 20.4696 8.10929 21.422 10.0491 21.8078C11.9889 22.1937 13.9996 21.9957 15.8268 21.2388C17.6541 20.4819 19.2159 19.2002 20.3147 17.5557C21.4135 15.9112 22 13.9778 22 12C21.997 9.34876 20.9424 6.80698 19.0677 4.93227C17.193 3.05756 14.6512 2.00302 12 2V2ZM17.7086 18.3757C17.6943 17.4388 17.3126 16.545 16.6457 15.8868C15.9787 15.2287 15.0799 14.8589 14.1429 14.8571H9.85715C8.92013 14.8589 8.02132 15.2287 7.35435 15.8868C6.68739 16.545 6.30567 17.4388 6.29143 18.3757C4.99612 17.2191 4.08267 15.6963 3.67203 14.009C3.26139 12.3218 3.37293 10.5495 3.99189 8.92704C4.61084 7.30455 5.70802 5.90833 7.13813 4.92326C8.56823 3.93819 10.2638 3.41073 12.0004 3.41073C13.7369 3.41073 15.4325 3.93819 16.8626 4.92326C18.2927 5.90833 19.3899 7.30455 20.0088 8.92704C20.6278 10.5495 20.7393 12.3218 20.3287 14.009C19.9181 15.6963 19.0046 17.2191 17.7093 18.3757H17.7086Z" fill="#8F8F8F"/>
</svg>
