<svg width="28" height="28" viewBox="0 0 28 28" fill="none" xmlns="http://www.w3.org/2000/svg">
<path d="M21 9C22.3261 9 23.5979 8.52589 24.5355 7.68198C25.4732 6.83807 26 5.69347 26 4.5C26 3.30653 25.4732 2.16193 24.5355 1.31802C23.5979 0.474106 22.3261 0 21 0C19.6739 0 18.4021 0.474106 17.4645 1.31802C16.5268 2.16193 16 3.30653 16 4.5C16 5.69347 16.5268 6.83807 17.4645 7.68198C18.4021 8.52589 19.6739 9 21 9Z" fill="#4B4B4B"/>
<path fill-rule="evenodd" clip-rule="evenodd" d="M4.65626 7.78795C5.48174 7.78795 6.27342 7.45974 6.85713 6.87553C7.44083 6.29132 7.76876 5.49896 7.76876 4.67277C7.76876 3.84657 7.44083 3.05421 6.85713 2.47C6.27342 1.88579 5.48174 1.55759 4.65626 1.55759C3.83077 1.55759 3.03909 1.88579 2.45539 2.47C1.87168 3.05421 1.54376 3.84657 1.54376 4.67277C1.54376 5.49896 1.87168 6.29132 2.45539 6.87553C3.03909 7.45974 3.83077 7.78795 4.65626 7.78795V7.78795ZM9.325 4.67277C9.32486 5.77708 8.93409 6.84567 8.22194 7.68916C7.50979 8.53264 6.52226 9.09654 5.43438 9.28089V10.9031H6.99063C7.197 10.9031 7.39492 10.9852 7.54085 11.1312C7.68677 11.2773 7.76876 11.4754 7.76876 11.6819C7.76876 11.8885 7.68677 12.0866 7.54085 12.2326C7.39492 12.3787 7.197 12.4607 6.99063 12.4607H5.43438V14.7971C5.43438 15.0036 5.3524 15.2017 5.20647 15.3478C5.06055 15.4938 4.86263 15.5759 4.65626 15.5759C4.44989 15.5759 4.25197 15.4938 4.10604 15.3478C3.96011 15.2017 3.87813 15.0036 3.87813 14.7971V12.4607H2.32188C2.11551 12.4607 1.91759 12.3787 1.77167 12.2326C1.62574 12.0866 1.54376 11.8885 1.54376 11.6819C1.54376 11.4754 1.62574 11.2773 1.77167 11.1312C1.91759 10.9852 2.11551 10.9031 2.32188 10.9031H3.87813V9.28089C2.72645 9.0825 1.69094 8.45919 0.975995 7.53399C0.261054 6.6088 -0.0813534 5.44896 0.0163657 4.28344C0.114085 3.11792 0.64483 2.03141 1.50383 1.2384C2.36282 0.445399 3.48765 0.00352045 4.65626 0C5.89449 0 7.082 0.492308 7.95756 1.36862C8.83312 2.24494 9.325 3.43347 9.325 4.67277ZM13.9938 8.13607V11.9498C16.3834 13.0386 19.0228 14.9824 21.3237 17.3679C23.6238 19.7541 25.6361 22.6349 26.7184 25.6309C27.5853 24.5383 28 23.1886 28 21.839V21.1739C26.8764 18.3149 24.549 15.4544 21.7641 13.0479C20.2276 11.7185 18.5676 10.5392 16.8067 9.52621C16.6585 9.44516 16.5112 9.36261 16.3647 9.27856C15.5959 8.85461 14.8044 8.47321 13.9938 8.13607V8.13607ZM21.7999 11.0519C22.1322 11.3174 22.459 11.5892 22.7811 11.8681C24.8042 13.6164 26.6476 15.6374 28 17.7807V8.56674C25.6329 10.263 23.7125 11.048 21.7999 11.0519ZM25.4423 26.7142C25.4516 26.7422 25.4618 26.7687 25.4734 26.7952C24.5482 27.4354 23.36 27.8723 21.8933 27.9992C21.1866 26.491 20.3473 25.0487 19.3854 23.6894C17.7109 21.3211 15.7757 19.3647 13.9938 18.2479V13.6803C16.0013 14.7138 18.2174 16.3897 20.2032 18.4496C22.5508 20.8842 24.5179 23.7961 25.4423 26.7142V26.7142ZM13.9938 20.1451V21.8382C13.9938 24.3366 15.9289 27.6176 20.1643 28C19.5671 26.8135 18.8823 25.6733 18.1155 24.5889C16.788 22.712 15.3313 21.17 13.9938 20.1451Z" fill="#4B4B4B"/>
</svg>
