<svg width="32" height="32" viewBox="0 0 32 32" fill="none" xmlns="http://www.w3.org/2000/svg">
<path d="M15.04 3.73331L14.3733 4.39997C13.4935 3.90935 12.5221 3.60524 11.5197 3.5066C10.5172 3.40796 9.50515 3.5169 8.54664 3.82664L8.43998 3.73331C7.80493 3.16564 6.97666 2.86261 6.12522 2.88644C5.27377 2.91027 4.46374 3.25914 3.86144 3.86144C3.25914 4.46374 2.91027 5.27377 2.88644 6.12522C2.86261 6.97666 3.16564 7.80493 3.73331 8.43998L3.82664 8.54664C3.5169 9.50515 3.40796 10.5172 3.5066 11.5197C3.60524 12.5221 3.90935 13.4935 4.39997 14.3733L3.73331 15.04C3.35877 15.415 3.1484 15.9233 3.1484 16.4533C3.1484 16.9833 3.35877 17.4916 3.73331 17.8666L5.61331 19.76C5.98831 20.1345 6.49664 20.3449 7.02664 20.3449C7.55664 20.3449 8.06497 20.1345 8.43998 19.76L8.90664 19.28L18.3466 28.7066C18.7216 29.0812 19.23 29.2915 19.76 29.2915C20.29 29.2915 20.7983 29.0812 21.1733 28.7066L28.7066 21.1733C29.0812 20.7983 29.2915 20.29 29.2915 19.76C29.2915 19.23 29.0812 18.7216 28.7066 18.3466L19.28 8.90664L19.76 8.43998C20.1345 8.06497 20.3449 7.55664 20.3449 7.02664C20.3449 6.49664 20.1345 5.98831 19.76 5.61331L17.8666 3.73331C17.4916 3.35877 16.9833 3.1484 16.4533 3.1484C15.9233 3.1484 15.415 3.35877 15.04 3.73331V3.73331ZM18.3466 7.02664L7.02664 18.3466L5.14664 16.4533L16.4533 5.14664L18.3466 7.02664ZM19.76 15.5066L15.5066 19.76L14.0933 18.3466L18.3466 14.0933L19.76 15.5066ZM22.5866 18.3466L18.3466 22.5866L16.92 21.1733L21.1733 16.92L22.5866 18.3466Z" fill="#4B4B4B"/>
</svg>
