<svg width="15" height="10" viewBox="0 0 15 10" fill="none" xmlns="http://www.w3.org/2000/svg">
<path d="M6.95117 9.712C7.01233 9.80082 7.09416 9.87344 7.18961 9.92362C7.28507 9.97379 7.39129 10 7.49913 10C7.60697 10 7.71319 9.97379 7.80865 9.92362C7.90411 9.87344 7.98594 9.80082 8.04709 9.712L14.0467 1.04593C14.1161 0.945973 14.1569 0.828898 14.1644 0.707422C14.172 0.585946 14.1462 0.464717 14.0897 0.356905C14.0332 0.249093 13.9482 0.158821 13.8441 0.0958989C13.7399 0.0329764 13.6204 -0.000190883 13.4987 8.26379e-07H1.49955C1.37812 0.000502398 1.25912 0.0340962 1.15536 0.0971694C1.05159 0.160243 0.966984 0.250409 0.910632 0.357972C0.85428 0.465534 0.828316 0.586424 0.835531 0.707639C0.842747 0.828855 0.882869 0.945811 0.951583 1.04593L6.95117 9.712Z" fill="black"/>
</svg>
