<svg width="32" height="32" viewBox="0 0 32 32" fill="none" xmlns="http://www.w3.org/2000/svg">
<path fill-rule="evenodd" clip-rule="evenodd" d="M12.0769 18.48C12.3194 18.6691 12.5236 18.906 12.678 19.1772C12.8324 19.4484 12.9339 19.7486 12.9768 20.0606C13.0197 20.3726 13.003 20.6903 12.9278 20.9956C12.8526 21.3009 12.7203 21.5879 12.5385 21.84L10.2308 25.04C10.0158 25.3381 9.73708 25.58 9.41665 25.7466C9.09621 25.9133 8.74287 26 8.38462 26H5.30769C4.69565 26 4.10868 25.7471 3.67591 25.2971C3.24313 24.847 3 24.2365 3 23.6C3 22.9635 3.24313 22.353 3.67591 21.9029C4.10868 21.4529 4.69565 21.2 5.30769 21.2H7.23077L8.84615 18.96C9.02798 18.7079 9.25579 18.4954 9.51655 18.3349C9.77732 18.1743 10.0659 18.0687 10.366 18.0241C10.666 17.9795 10.9715 17.9969 11.265 18.0751C11.5586 18.1533 11.8345 18.2909 12.0769 18.48V18.48Z" fill="#4B4B4B"/>
<path d="M27.2749 21.0543H25.0868L24.6976 20.87C23.7005 19.7286 22.086 17.2473 20.7332 16.3951C20.1718 16.0377 19.5245 15.8495 18.8647 15.8519H15L15.4002 25H18.6298C19.1668 24.9984 19.6969 24.8744 20.182 24.6369C20.6815 24.3913 21.1259 24.0414 21.4871 23.6095L21.8764 23.1486C22.3674 23.7108 22.8209 25 23.5496 25H27.3664C27.824 25 28.1709 24.7924 28.4946 24.4223C28.8183 24.0521 29 23.5504 29 23.0275C29 22.504 28.8183 22.0022 28.4946 21.6328C28.1709 21.2626 27.7325 21.0543 27.2749 21.0543ZM27.6341 10.5741C27.6341 11.7872 27.1665 12.9506 26.334 13.8084C25.5015 14.6662 24.3724 15.1481 23.1951 15.1481C22.0178 15.1481 20.8887 14.6662 20.0563 13.8084C19.2238 12.9506 18.7561 11.7872 18.7561 10.5741C18.7561 9.36095 19.2238 8.19752 20.0563 7.33972C20.8887 6.48191 22.0178 6 23.1951 6C24.3724 6 25.5015 6.48191 26.334 7.33972C27.1665 8.19752 27.6341 9.36095 27.6341 10.5741Z" fill="#4B4B4B"/>
<path fill-rule="evenodd" clip-rule="evenodd" d="M23 14.4615C23.9181 14.4615 24.7985 14.0968 25.4477 13.4477C26.0968 12.7985 26.4615 11.9181 26.4615 11C26.4615 10.0819 26.0968 9.20149 25.4477 8.55232C24.7985 7.90316 23.9181 7.53846 23 7.53846C22.0819 7.53846 21.2015 7.90316 20.5523 8.55232C19.9032 9.20149 19.5385 10.0819 19.5385 11C19.5385 11.9181 19.9032 12.7985 20.5523 13.4477C21.2015 14.0968 22.0819 14.4615 23 14.4615ZM23 16C24.3261 16 25.5979 15.4732 26.5355 14.5355C27.4732 13.5979 28 12.3261 28 11C28 9.67392 27.4732 8.40215 26.5355 7.46447C25.5979 6.52678 24.3261 6 23 6C21.6739 6 20.4021 6.52678 19.4645 7.46447C18.5268 8.40215 18 9.67392 18 11C18 12.3261 18.5268 13.5979 19.4645 14.5355C20.4021 15.4732 21.6739 16 23 16V16Z" fill="#4B4B4B"/>
</svg>
