<svg width="32" height="32" viewBox="0 0 32 32" fill="none" xmlns="http://www.w3.org/2000/svg">
<path d="M28.5653 16.5224C28.6522 16.2342 28.7264 15.9422 28.7876 15.6474C28.7915 15.625 28.7928 15.604 28.798 15.5816C28.824 15.4526 28.8357 15.3197 28.8565 15.1895C28.889 14.9829 28.928 14.7776 28.9475 14.5697C29.1022 13.0189 28.9138 11.4526 28.396 9.98466C27.8781 8.51669 27.0439 7.18385 25.9537 6.0829C24.9888 5.10423 23.8425 4.32809 22.5805 3.79904C21.3185 3.26999 19.9657 2.99845 18.5997 3.00001V13.5263H8.87199L7.75661 10.8947H3V13.5263H6.04324L8.4196 19.1395C7.58649 19.487 6.87391 20.0767 6.37201 20.8342C5.87011 21.5916 5.60142 22.4827 5.59995 23.3947C5.59995 25.9342 7.64091 28 10.1499 28C12.4365 28 14.315 26.2776 14.6335 24.0526H17.366C17.6845 26.2776 19.563 28 21.8497 28C24.3586 28 26.3996 25.9342 26.3996 23.3947C26.3996 22.5658 26.1643 21.7987 25.7847 21.125C25.8393 21.0711 25.9004 21.0237 25.955 20.9684C26.423 20.4934 26.8494 19.9697 27.2251 19.4105C27.5994 18.8447 27.9218 18.2447 28.1818 17.6224C28.2026 17.5737 28.2156 17.5224 28.2351 17.4737H28.2364L28.2559 17.4184C28.3703 17.1289 28.4743 16.8382 28.5614 16.5395L28.5653 16.5224V16.5224ZM10.1499 25.3684C9.07479 25.3684 8.1999 24.4829 8.1999 23.3947C8.1999 22.3066 9.07479 21.4211 10.1499 21.4211C11.2249 21.4211 12.0998 22.3066 12.0998 23.3947C12.0998 24.4829 11.2249 25.3684 10.1499 25.3684ZM21.8497 25.3684C20.7746 25.3684 19.8997 24.4829 19.8997 23.3947C19.8997 22.3066 20.7746 21.4211 21.8497 21.4211C22.9247 21.4211 23.7996 22.3066 23.7996 23.3947C23.7996 24.4829 22.9247 25.3684 21.8497 25.3684Z" fill="#4B4B4B"/>
</svg>
