<svg width="32" height="32" viewBox="0 0 32 32" fill="none" xmlns="http://www.w3.org/2000/svg">
<path d="M14.9678 3.83512L14.3114 4.49153C13.4451 4.00846 12.4887 3.70903 11.5017 3.6119C10.5146 3.51478 9.51814 3.62205 8.57437 3.92702L8.46935 3.83512C7.84408 3.27619 7.02856 2.97782 6.19022 3.00129C5.35187 3.02475 4.55432 3.36826 3.96129 3.96129C3.36826 4.55432 3.02475 5.35187 3.00129 6.19022C2.97782 7.02856 3.27619 7.84408 3.83512 8.46935L3.92702 8.57437C3.62205 9.51814 3.51478 10.5146 3.6119 11.5017C3.70903 12.4887 4.00846 13.4451 4.49153 14.3114L3.83512 14.9678C3.46635 15.337 3.25922 15.8375 3.25922 16.3594C3.25922 16.8812 3.46635 17.3817 3.83512 17.7509L5.68619 19.6151C6.05542 19.9839 6.55592 20.191 7.07777 20.191C7.59961 20.191 8.10012 19.9839 8.46935 19.6151L8.92883 19.1425L18.2235 28.4241C18.5928 28.7929 19.0933 29 19.6151 29C20.137 29 20.6375 28.7929 21.0067 28.4241L28.4241 21.0067C28.7929 20.6375 29 20.137 29 19.6151C29 19.0933 28.7929 18.5928 28.4241 18.2235L19.1425 8.92883L19.6151 8.46935C19.9839 8.10012 20.191 7.59961 20.191 7.07777C20.191 6.55592 19.9839 6.05542 19.6151 5.68619L17.7509 3.83512C17.3817 3.46635 16.8812 3.25922 16.3594 3.25922C15.8375 3.25922 15.337 3.46635 14.9678 3.83512V3.83512ZM18.2235 7.07777L7.07777 18.2235L5.2267 16.3594L16.3594 5.2267L18.2235 7.07777ZM19.6151 15.4273L15.4273 19.6151L14.0357 18.2235L18.2235 14.0357L19.6151 15.4273ZM22.3983 18.2235L18.2235 22.3983L16.8188 21.0067L21.0067 16.8188L22.3983 18.2235Z" fill="#4B4B4B"/>
</svg>
