<svg width="24" height="24" viewBox="0 0 24 24" fill="none" xmlns="http://www.w3.org/2000/svg">
<path d="M21.6326 17.6665L17.0689 13.5171C16.8532 13.321 16.5697 13.2165 16.2783 13.2255C15.9869 13.2345 15.7105 13.3564 15.5073 13.5654L12.8207 16.3283C12.174 16.2048 10.874 15.7995 9.53573 14.4646C8.1975 13.1253 7.79221 11.8219 7.67209 11.1797L10.4328 8.49205C10.642 8.28899 10.7641 8.01247 10.7731 7.72101C10.7821 7.42955 10.6774 7.14601 10.481 6.93042L6.33273 2.36789C6.13631 2.15162 5.86332 2.02043 5.57173 2.00219C5.28014 1.98395 4.99292 2.0801 4.77109 2.27022L2.33487 4.3595C2.14078 4.5543 2.02493 4.81357 2.0093 5.08812C1.99246 5.36878 1.67137 12.0172 6.82671 17.1748C11.3242 21.6711 16.9578 22 18.5093 22C18.7361 22 18.8753 21.9933 18.9123 21.991C19.1868 21.9757 19.446 21.8593 19.6398 21.6643L21.728 19.227C21.9189 19.0059 22.0157 18.7189 21.9979 18.4273C21.9801 18.1358 21.849 17.8627 21.6326 17.6665V17.6665Z" fill="#8F8F8F"/>
</svg>
