<svg width="32" height="32" viewBox="0 0 32 32" fill="none" xmlns="http://www.w3.org/2000/svg">
<path fill-rule="evenodd" clip-rule="evenodd" d="M11.8667 17.5347C12.0768 17.689 12.2538 17.8824 12.3876 18.1038C12.5214 18.3252 12.6094 18.5702 12.6466 18.8249C12.6837 19.0796 12.6693 19.339 12.6041 19.5882C12.5389 19.8375 12.4243 20.0717 12.2667 20.2775L10.2667 22.8898C10.0804 23.1331 9.8388 23.3306 9.56109 23.4666C9.28338 23.6026 8.97716 23.6734 8.66667 23.6734H6C5.46957 23.6734 4.96086 23.467 4.58579 23.0996C4.21071 22.7322 4 22.2339 4 21.7143C4 21.1946 4.21071 20.6963 4.58579 20.3289C4.96086 19.9615 5.46957 19.7551 6 19.7551H7.66667L9.06667 17.9265C9.22425 17.7207 9.42168 17.5473 9.64768 17.4162C9.87368 17.2851 10.1238 17.1989 10.3838 17.1625C10.6438 17.1261 10.9086 17.1403 11.163 17.2041C11.4175 17.268 11.6566 17.3803 11.8667 17.5347V17.5347Z" fill="#4B4B4B"/>
<path d="M26.316 20.0117H24.18L23.8 19.8406C22.8267 18.7813 21.2507 16.4786 19.93 15.6878C19.3821 15.3561 18.7502 15.1815 18.106 15.1836H14.3334L14.724 23.6734H17.8767C18.401 23.6719 18.9185 23.5569 19.392 23.3364C19.8796 23.1085 20.3134 22.7838 20.666 22.383L21.046 21.9552C21.5254 22.477 21.968 23.6734 22.6794 23.6734H26.4054C26.852 23.6734 27.1907 23.4808 27.5067 23.1373C27.8227 22.7938 28 22.3281 28 21.8429C28 21.357 27.8227 20.8914 27.5067 20.5485C27.1907 20.205 26.7627 20.0117 26.316 20.0117V20.0117ZM26.6667 10.2857C26.6667 11.4115 26.2102 12.4912 25.3975 13.2873C24.5848 14.0833 23.4826 14.5306 22.3334 14.5306C21.1841 14.5306 20.0819 14.0833 19.2692 13.2873C18.4566 12.4912 18 11.4115 18 10.2857C18 9.15985 18.4566 8.08015 19.2692 7.28407C20.0819 6.488 21.1841 6.04077 22.3334 6.04077C23.4826 6.04077 24.5848 6.488 25.3975 7.28407C26.2102 8.08015 26.6667 9.15985 26.6667 10.2857V10.2857Z" fill="#4B4B4B"/>
<path fill-rule="evenodd" clip-rule="evenodd" d="M22.3333 13.2244C23.129 13.2244 23.892 12.9148 24.4547 12.3637C25.0173 11.8126 25.3333 11.0651 25.3333 10.2857C25.3333 9.50626 25.0173 8.75877 24.4547 8.20764C23.892 7.65651 23.129 7.34689 22.3333 7.34689C21.5377 7.34689 20.7746 7.65651 20.212 8.20764C19.6494 8.75877 19.3333 9.50626 19.3333 10.2857C19.3333 11.0651 19.6494 11.8126 20.212 12.3637C20.7746 12.9148 21.5377 13.2244 22.3333 13.2244ZM22.3333 14.5306C23.4826 14.5306 24.5848 14.0833 25.3975 13.2873C26.2101 12.4912 26.6667 11.4115 26.6667 10.2857C26.6667 9.15985 26.2101 8.08015 25.3975 7.28407C24.5848 6.488 23.4826 6.04077 22.3333 6.04077C21.1841 6.04077 20.0819 6.488 19.2692 7.28407C18.4565 8.08015 18 9.15985 18 10.2857C18 11.4115 18.4565 12.4912 19.2692 13.2873C20.0819 14.0833 21.1841 14.5306 22.3333 14.5306V14.5306Z" fill="#4B4B4B"/>
</svg>
