<svg width="24" height="24" viewBox="0 0 24 24" fill="none" xmlns="http://www.w3.org/2000/svg">
<path d="M11.4154 19.4235C11.5043 19.5529 11.6232 19.6587 11.762 19.7318C11.9007 19.8048 12.0551 19.843 12.2119 19.843C12.3686 19.843 12.523 19.8048 12.6617 19.7318C12.8005 19.6587 12.9194 19.5529 13.0083 19.4235L21.7287 6.79983C21.8296 6.65422 21.8888 6.48368 21.8998 6.30673C21.9108 6.12978 21.8732 5.95319 21.7911 5.79614C21.709 5.63909 21.5856 5.5076 21.4341 5.41594C21.2827 5.32428 21.1091 5.27597 20.9322 5.27625H3.49151C3.31502 5.27698 3.14206 5.32591 2.99124 5.41779C2.84042 5.50967 2.71744 5.64101 2.63553 5.79769C2.55363 5.95438 2.51589 6.13048 2.52637 6.30705C2.53686 6.48362 2.59518 6.65399 2.69506 6.79983L11.4154 19.4235Z" fill="#333333"/>
</svg>
