<svg width="32" height="32" viewBox="0 0 32 32" fill="none" xmlns="http://www.w3.org/2000/svg">
<path d="M25.5168 8.79996H25.5968C26.2184 8.80012 26.8315 8.94519 27.3874 9.22365C27.9432 9.50211 28.4265 9.9063 28.7989 10.4041C29.1712 10.902 29.4224 11.4797 29.5325 12.0916C29.6426 12.7035 29.6086 13.3326 29.4331 13.929C29.2576 14.5254 28.9455 15.0727 28.5216 15.5274C28.0977 15.9822 27.5736 16.3319 26.991 16.5487C26.4084 16.7656 25.7832 16.8436 25.1651 16.7767C24.547 16.7098 23.9531 16.4997 23.4304 16.1632L24.1504 19.1296C24.2215 19.4237 24.225 19.7302 24.1606 20.026C24.0961 20.3217 23.9653 20.5989 23.7782 20.8368C23.591 21.0746 23.3523 21.2669 23.08 21.3991C22.8077 21.5313 22.509 21.6 22.2064 21.6H20.9856C20.6828 21.5998 20.3841 21.5309 20.1119 21.3985C19.8397 21.2661 19.6011 21.0737 19.4141 20.8357C19.227 20.5976 19.0965 20.3203 19.0322 20.0245C18.968 19.7287 18.9717 19.4221 19.0432 19.128L19.7632 16.1632C19.089 16.5991 18.2985 16.8206 17.496 16.7984C17.3199 16.1206 16.9265 15.5192 16.376 15.0864C16.6561 14.3566 16.7998 13.5816 16.8 12.8C16.8 11.4912 16.4064 10.2752 15.7328 9.26076C16.3321 8.94421 17.0023 8.78562 17.68 8.79996C17.5725 8.27204 17.5725 7.72789 17.68 7.19996C17.8921 6.16031 18.5086 5.24753 19.3938 4.66242C20.2789 4.0773 21.3603 3.86779 22.4 4.07996C23.4396 4.29213 24.3524 4.90862 24.9375 5.79379C25.5226 6.67896 25.7321 7.76031 25.52 8.79996H25.5168ZM10.4 7.99996C9.47336 7.99998 8.56657 8.2682 7.78906 8.77222C7.01154 9.27625 6.39653 9.99455 6.01826 10.8404C5.63999 11.6863 5.51463 12.6236 5.65731 13.5391C5.79999 14.4546 6.20462 15.3093 6.82235 16H6.39995C5.9756 16 5.56864 16.1685 5.26858 16.4686C4.96852 16.7686 4.79995 17.1756 4.79995 17.6C4.79995 18.0243 4.96852 18.4313 5.26858 18.7313C5.56864 19.0314 5.9756 19.2 6.39995 19.2H7.23195C6.63675 22.0768 5.06715 23.7376 4.19195 24.4688C3.63835 24.9328 3.19995 25.6464 3.19995 26.4784C3.19995 27.76 4.23995 28.8 5.52155 28.8H15.28C16.56 28.8 17.6 27.76 17.6 26.4784C17.6 25.6464 17.1616 24.9328 16.608 24.4688C15.7328 23.7376 14.1632 22.0768 13.568 19.2H14.4C14.8243 19.2 15.2313 19.0314 15.5313 18.7313C15.8314 18.4313 16 18.0243 16 17.6C16 17.1756 15.8314 16.7686 15.5313 16.4686C15.2313 16.1685 14.8243 16 14.4 16H13.9776C14.5953 15.3093 14.9999 14.4546 15.1426 13.5391C15.2853 12.6236 15.1599 11.6863 14.7816 10.8404C14.4034 9.99455 13.7884 9.27625 13.0108 8.77222C12.2333 8.2682 11.3265 7.99998 10.4 7.99996V7.99996Z" fill="#4B4B4B"/>
</svg>
