<svg width="32" height="32" viewBox="0 0 32 32" fill="none" xmlns="http://www.w3.org/2000/svg">
<path d="M24.9822 7.83937H25.061C25.6733 7.83953 26.2772 7.98576 26.8248 8.26646C27.3723 8.54716 27.8483 8.95459 28.2151 9.45643C28.5819 9.95826 28.8293 10.5407 28.9377 11.1575C29.0462 11.7742 29.0126 12.4084 28.8398 13.0096C28.667 13.6108 28.3596 14.1625 27.942 14.6209C27.5244 15.0793 27.0082 15.4318 26.4343 15.6504C25.8604 15.869 25.2446 15.9477 24.6358 15.8802C24.027 15.8127 23.4419 15.601 22.9271 15.2617L23.6363 18.2519C23.7064 18.5485 23.7098 18.8574 23.6463 19.1555C23.5828 19.4536 23.454 19.7331 23.2697 19.9729C23.0853 20.2126 22.8502 20.4064 22.582 20.5397C22.3138 20.673 22.0195 20.7422 21.7214 20.7422H20.5189C20.2208 20.742 19.9265 20.6726 19.6584 20.5391C19.3902 20.4057 19.1552 20.2117 18.971 19.9717C18.7868 19.7318 18.6582 19.4522 18.5949 19.154C18.5316 18.8558 18.5353 18.5468 18.6056 18.2503L19.3148 15.2617C18.6508 15.7012 17.8722 15.9244 17.0816 15.902C16.9082 15.2188 16.5207 14.6126 15.9784 14.1763C16.2544 13.4407 16.3959 12.6594 16.3961 11.8715C16.3961 10.5522 16.0084 9.32642 15.3449 8.30387C15.9353 7.98478 16.5954 7.82492 17.2629 7.83937C17.1571 7.30721 17.1571 6.75869 17.2629 6.22652C17.4719 5.17852 18.0791 4.25841 18.951 3.6686C19.8229 3.07879 20.8881 2.86759 21.9121 3.08146C22.9362 3.29534 23.8353 3.91678 24.4116 4.80906C24.9879 5.70134 25.1943 6.79137 24.9853 7.83937H24.9822ZM10.092 7.03295C9.17934 7.03297 8.28615 7.30334 7.5203 7.81141C6.75444 8.31949 6.14865 9.04356 5.77605 9.89622C5.40345 10.7489 5.27997 11.6937 5.42051 12.6166C5.56106 13.5395 5.95962 14.401 6.56809 15.0972H6.15202C5.73404 15.0972 5.33317 15.2671 5.03761 15.5696C4.74205 15.8721 4.57601 16.2823 4.57601 16.71C4.57601 17.1378 4.74205 17.548 5.03761 17.8505C5.33317 18.153 5.73404 18.3229 6.15202 18.3229H6.97154C6.38527 21.2228 4.8392 22.8969 3.97713 23.634C3.43183 24.1017 3 24.8211 3 25.6598C3 26.9516 4.02441 28 5.28679 28H14.8989C16.1597 28 17.1841 26.9516 17.1841 25.6598C17.1841 24.8211 16.7523 24.1017 16.207 23.634C15.3449 22.8969 13.7988 21.2228 13.2125 18.3229H14.0321C14.45 18.3229 14.8509 18.153 15.1465 17.8505C15.442 17.548 15.6081 17.1378 15.6081 16.71C15.6081 16.2823 15.442 15.8721 15.1465 15.5696C14.8509 15.2671 14.45 15.0972 14.0321 15.0972H13.616C14.2245 14.401 14.623 13.5395 14.7636 12.6166C14.9041 11.6937 14.7806 10.7489 14.408 9.89622C14.0354 9.04356 13.4296 8.31949 12.6638 7.81141C11.8979 7.30334 11.0047 7.03297 10.092 7.03295V7.03295Z" fill="#4B4B4B"/>
</svg>
