<svg width="36" height="32" viewBox="0 0 36 32" fill="none" xmlns="http://www.w3.org/2000/svg">
<path d="M35.129 6.55776C34.5705 5.27449 33.7651 4.11159 32.7579 3.13418C31.75 2.15385 30.5617 1.3748 29.2575 0.839386C27.9052 0.281991 26.4547 -0.0033152 24.9904 2.90627e-05C22.936 2.90627e-05 20.9316 0.558222 19.1897 1.61259C18.773 1.86481 18.3771 2.14184 18.0021 2.44367C17.627 2.14184 17.2311 1.86481 16.8144 1.61259C15.0726 0.558222 13.0682 2.90627e-05 11.0138 2.90627e-05C9.53442 2.90627e-05 8.10093 0.281193 6.74661 0.839386C5.43812 1.37691 4.25882 2.15011 3.2462 3.13418C2.23774 4.11049 1.43216 5.27366 0.8751 6.55776C0.295867 7.89329 0 9.31152 0 10.7711C0 12.148 0.283366 13.5827 0.84593 15.0423C1.31682 16.2621 1.99189 17.5273 2.85449 18.8049C4.22132 20.8268 6.1007 22.9356 8.4343 25.0732C12.3014 28.6167 16.131 31.0645 16.2935 31.1637L17.2811 31.7922C17.7187 32.0693 18.2813 32.0693 18.7188 31.7922L19.7064 31.1637C19.8689 31.0604 23.6944 28.6167 27.5657 25.0732C29.8993 22.9356 31.7786 20.8268 33.1455 18.8049C34.0081 17.5273 34.6873 16.2621 35.154 15.0423C35.7166 13.5827 36 12.148 36 10.7711C36.0041 9.31152 35.7083 7.89329 35.129 6.55776Z" fill="#4B4B4B"/>
<path d="M31.3262 8.84997C30.8917 7.89488 30.2652 7.02939 29.4818 6.30194C28.6978 5.57232 27.7734 4.99251 26.7589 4.59402C25.707 4.17917 24.5787 3.96683 23.4397 3.96932C21.8416 3.96932 20.2825 4.38476 18.9275 5.16948C18.6034 5.3572 18.2954 5.56338 18.0037 5.78802C17.712 5.56338 17.404 5.3572 17.0799 5.16948C15.7249 4.38476 14.1658 3.96932 12.5677 3.96932C11.417 3.96932 10.3019 4.17858 9.24845 4.59402C8.23062 4.99407 7.31328 5.56953 6.5256 6.30194C5.74115 7.02857 5.11451 7.89426 4.6812 8.84997C4.23063 9.84395 4.00049 10.8995 4.00049 11.9858C4.00049 13.0105 4.22091 14.0784 4.65851 15.1647C5.0248 16.0725 5.54992 17.0141 6.2209 17.965C7.28411 19.4698 8.74602 21.0393 10.5612 22.6303C13.5693 25.2675 16.5483 27.0893 16.6747 27.1632L17.4429 27.6309C17.7833 27.8371 18.2209 27.8371 18.5612 27.6309L19.3295 27.1632C19.4559 27.0862 22.4316 25.2675 25.4429 22.6303C27.2581 21.0393 28.72 19.4698 29.7832 17.965C30.4542 17.0141 30.9826 16.0725 31.3456 15.1647C31.7832 14.0784 32.0037 13.0105 32.0037 11.9858C32.0069 10.8995 31.7768 9.84395 31.3262 8.84997Z" fill="white"/>
</svg>
