<svg width="38" height="36" viewBox="0 0 36 34" fill="none" xmlns="http://www.w3.org/2000/svg">
<path d="M35.129 6.96762C34.5705 5.60414 33.7651 4.36857 32.7579 3.33007C31.75 2.28847 30.5617 1.46072 29.2575 0.891848C27.9052 0.299616 26.4547 -0.0035224 24.9904 3.08791e-05C22.936 3.08791e-05 20.9316 0.593111 19.1897 1.71337C18.773 1.98136 18.3771 2.2757 18.0021 2.5964C17.627 2.2757 17.2311 1.98136 16.8144 1.71337C15.0726 0.593111 13.0682 3.08791e-05 11.0138 3.08791e-05C9.53442 3.08791e-05 8.10093 0.298768 6.74661 0.891848C5.43812 1.46296 4.25882 2.28449 3.2462 3.33007C2.23774 4.3674 1.43216 5.60326 0.8751 6.96762C0.295867 8.38662 0 9.89349 0 11.4443C0 12.9072 0.283366 14.4316 0.84593 15.9824C1.31682 17.2784 1.99189 18.6227 2.85449 19.9802C4.22132 22.1285 6.1007 24.369 8.4343 26.6403C12.3014 30.4053 16.131 33.006 16.2935 33.1115L17.2811 33.7792C17.7187 34.0736 18.2813 34.0736 18.7188 33.7792L19.7064 33.1115C19.8689 33.0016 23.6944 30.4053 27.5657 26.6403C29.8993 24.369 31.7786 22.1285 33.1455 19.9802C34.0081 18.6227 34.6873 17.2784 35.154 15.9824C35.7166 14.4316 36 12.9072 36 11.4443C36.0041 9.89349 35.7083 8.38662 35.129 6.96762Z" fill="#EA4C83"/>
<path d="M17.7853 21.712C17.8464 21.8008 17.9283 21.8734 18.0237 21.9236C18.1192 21.9738 18.2254 22 18.3332 22C18.4411 22 18.5473 21.9738 18.6428 21.9236C18.7382 21.8734 18.82 21.8008 18.8812 21.712L24.8808 13.0459C24.9502 12.946 24.991 12.8289 24.9985 12.7074C25.0061 12.5859 24.9803 12.4647 24.9238 12.3569C24.8673 12.2491 24.7823 12.1588 24.6782 12.0959C24.574 12.033 24.4545 11.9998 24.3328 12L12.3337 12C12.2122 12.0005 12.0932 12.0341 11.9895 12.0972C11.8857 12.1602 11.8011 12.2504 11.7447 12.358C11.6884 12.4655 11.6624 12.5864 11.6696 12.7076C11.6769 12.8289 11.717 12.9458 11.7857 13.0459L17.7853 21.712Z" fill="#F7C5DD"/>
</svg>
