<svg width="24" height="24" viewBox="0 0 24 24" fill="none" xmlns="http://www.w3.org/2000/svg">
<path d="M11.997 7.9983C9.79352 7.9983 7.9953 9.79651 7.9953 12C7.9953 14.2035 9.79352 16.0017 11.997 16.0017C14.2005 16.0017 15.9987 14.2035 15.9987 12C15.9987 9.79651 14.2005 7.9983 11.997 7.9983ZM23.9991 12C23.9991 10.3429 24.0141 8.70077 23.9211 7.04665C23.828 5.12536 23.3897 3.4202 21.9848 2.01525C20.5768 0.607302 18.8747 0.172008 16.9534 0.0789456C15.2962 -0.0141173 13.6541 0.000892936 12 0.000892936C10.3429 0.000892936 8.70078 -0.0141173 7.04666 0.0789456C5.12536 0.172008 3.42021 0.610305 2.01526 2.01525C0.607303 3.42321 0.172009 5.12536 0.0789457 7.04665C-0.0141173 8.70377 0.000892937 10.3459 0.000892937 12C0.000892937 13.6541 -0.0141173 15.2992 0.0789457 16.9533C0.172009 18.8746 0.610305 20.5798 2.01526 21.9847C3.42321 23.3927 5.12536 23.828 7.04666 23.9211C8.70378 24.0141 10.3459 23.9991 12 23.9991C13.6571 23.9991 15.2992 24.0141 16.9534 23.9211C18.8747 23.828 20.5798 23.3897 21.9848 21.9847C23.3927 20.5768 23.828 18.8746 23.9211 16.9533C24.0171 15.2992 23.9991 13.6571 23.9991 12ZM11.997 18.1572C8.5897 18.1572 5.83984 15.4073 5.83984 12C5.83984 8.5927 8.5897 5.84284 11.997 5.84284C15.4043 5.84284 18.1542 8.5927 18.1542 12C18.1542 15.4073 15.4043 18.1572 11.997 18.1572ZM18.4063 7.02864C17.6108 7.02864 16.9684 6.38621 16.9684 5.59067C16.9684 4.79513 17.6108 4.1527 18.4063 4.1527C19.2019 4.1527 19.8443 4.79513 19.8443 5.59067C19.8446 5.77957 19.8075 5.96667 19.7353 6.14124C19.6632 6.31581 19.5573 6.47442 19.4237 6.608C19.2901 6.74157 19.1315 6.84748 18.9569 6.91967C18.7823 6.99185 18.5953 7.02888 18.4063 7.02864Z" fill="black"/>
</svg>
