<svg width="24" height="24" viewBox="0 0 24 24" fill="none" xmlns="http://www.w3.org/2000/svg">
<path d="M24 7.31733V18.5C24 20.4333 22.5158 22 20.6842 22H3.31579C2.43639 22 1.593 21.6313 0.971172 20.9749C0.349341 20.3185 0 19.4283 0 18.5V7.31733L11.6198 14.064C11.8566 14.2013 12.144 14.2013 12.3802 14.064L24 7.31667V7.31733ZM20.6842 2C21.5498 2.00008 22.381 2.35744 23.0003 2.99572C23.6196 3.634 23.978 4.50261 23.9987 5.416L12 12.3827L0.00126307 5.41533L0.00252643 5.35533C0.0378965 4.45284 0.402446 3.59972 1.01994 2.97438C1.63744 2.34905 2.46006 1.99992 3.31579 2H20.6842Z" fill="black"/>
</svg>
