<svg width="24" height="24" viewBox="0 0 24 24" fill="none" xmlns="http://www.w3.org/2000/svg">
<path d="M21.5 8.488V16.875C21.5 18.325 20.325 19.5 18.875 19.5H5.125C4.42881 19.5 3.76113 19.2234 3.26884 18.7312C2.77656 18.2389 2.5 17.5712 2.5 16.875V8.488L11.699 13.548C11.8865 13.651 12.114 13.651 12.301 13.548L21.5 8.4875V8.488ZM18.875 4.5C19.5602 4.50006 20.2183 4.76808 20.7086 5.24679C21.1989 5.7255 21.4826 6.37696 21.499 7.062L12 12.287L2.501 7.0615L2.502 7.0165C2.53 6.33963 2.8186 5.69979 3.30745 5.23079C3.79631 4.76179 4.44755 4.49994 5.125 4.5H18.875Z" fill="black"/>
</svg>
