<svg width="32" height="32" viewBox="0 0 32 32" fill="none" xmlns="http://www.w3.org/2000/svg">
<path d="M26.6666 7.99999C26.6666 7.64637 26.5261 7.30723 26.2761 7.05718C26.0261 6.80713 25.6869 6.66666 25.3333 6.66666H6.66663C6.31301 6.66666 5.97387 6.80713 5.72382 7.05718C5.47377 7.30723 5.33329 7.64637 5.33329 7.99999C5.33329 8.35361 5.47377 8.69275 5.72382 8.9428C5.97387 9.19285 6.31301 9.33332 6.66663 9.33332H25.3333C25.6869 9.33332 26.0261 9.19285 26.2761 8.9428C26.5261 8.69275 26.6666 8.35361 26.6666 7.99999ZM26.6666 24C26.6666 23.6464 26.5261 23.3072 26.2761 23.0572C26.0261 22.8071 25.6869 22.6667 25.3333 22.6667H6.66663C6.31301 22.6667 5.97387 22.8071 5.72382 23.0572C5.47377 23.3072 5.33329 23.6464 5.33329 24C5.33329 24.3536 5.47377 24.6928 5.72382 24.9428C5.97387 25.1928 6.31301 25.3333 6.66663 25.3333H25.3333C25.6869 25.3333 26.0261 25.1928 26.2761 24.9428C26.5261 24.6928 26.6666 24.3536 26.6666 24ZM17.3333 14.6667C17.6869 14.6667 18.0261 14.8071 18.2761 15.0572C18.5262 15.3072 18.6666 15.6464 18.6666 16C18.6666 16.3536 18.5262 16.6928 18.2761 16.9428C18.0261 17.1928 17.6869 17.3333 17.3333 17.3333H6.66663C6.31301 17.3333 5.97387 17.1928 5.72382 16.9428C5.47377 16.6928 5.33329 16.3536 5.33329 16C5.33329 15.6464 5.47377 15.3072 5.72382 15.0572C5.97387 14.8071 6.31301 14.6667 6.66663 14.6667H17.3333Z" fill="black"/>
</svg>
