<svg width="32" height="32" viewBox="0 0 32 32" fill="none" xmlns="http://www.w3.org/2000/svg">
<path d="M29.7568 7.04004H2.25346C1.36898 7.04004 0.645142 7.84452 0.645142 8.64004C0.645142 9.43556 1.36898 10.2394 2.25346 10.2394H2.64194V13.4394H29.4074V10.2394H29.7568C30.6419 10.2394 31.3651 9.43556 31.3651 8.64004C31.3651 7.84452 30.6419 7.04004 29.7568 7.04004V7.04004ZM16.0051 11.8528C15.561 11.8528 15.2013 11.4823 15.2013 11.026C15.2013 10.5696 15.561 10.1991 16.0051 10.1991C16.4499 10.1991 16.809 10.5696 16.809 11.026C16.809 11.4823 16.4499 11.8528 16.0051 11.8528ZM2.64194 19.8388H29.4074V14.72H2.64194V19.8388ZM16.0051 16.3994C16.4499 16.3994 16.809 16.7693 16.809 17.2256C16.809 17.6826 16.4499 18.0525 16.0051 18.0525C15.561 18.0525 15.2013 17.6826 15.2013 17.2256C15.2007 16.7693 15.561 16.3994 16.0051 16.3994ZM2.64194 24.2528V27.9738C2.64194 28.4282 2.6989 28.8007 3.14114 28.8007H6.3565C6.79874 28.8007 6.99906 28.4282 6.99906 27.9738V25.5994H25.0503V27.9738C25.0503 28.4282 25.2115 28.8007 25.6531 28.8007H28.8691C29.3101 28.8007 29.4067 28.4282 29.4067 27.9738V21.12H2.64194V24.2528V24.2528ZM16.0051 22.5997C16.4499 22.5997 16.809 22.9703 16.809 23.426C16.809 23.8836 16.4499 24.2522 16.0051 24.2522C15.561 24.2522 15.2013 23.8836 15.2013 23.426C15.2007 22.9709 15.561 22.5997 16.0051 22.5997Z" fill="#4B4B4B"/>
</svg>
