<svg width="32" height="32" viewBox="0 0 32 32" fill="none" xmlns="http://www.w3.org/2000/svg">
<path d="M22.5 12C23.6935 12 24.8381 11.5259 25.682 10.682C26.5259 9.83807 27 8.69347 27 7.5C27 6.30653 26.5259 5.16193 25.682 4.31802C24.8381 3.47411 23.6935 3 22.5 3C21.3065 3 20.1619 3.47411 19.318 4.31802C18.4741 5.16193 18 6.30653 18 7.5C18 8.69347 18.4741 9.83807 19.318 10.682C20.1619 11.5259 21.3065 12 22.5 12Z" fill="#4B4B4B"/>
<path fill-rule="evenodd" clip-rule="evenodd" d="M7.32367 10.2317C8.09019 10.2317 8.82532 9.9269 9.36733 9.38442C9.90934 8.84194 10.2138 8.10618 10.2138 7.339C10.2138 6.57182 9.90934 5.83605 9.36733 5.29357C8.82532 4.75109 8.09019 4.44633 7.32367 4.44633C6.55714 4.44633 5.82202 4.75109 5.28 5.29357C4.73799 5.83605 4.43349 6.57182 4.43349 7.339C4.43349 8.10618 4.73799 8.84194 5.28 9.38442C5.82202 9.9269 6.55714 10.2317 7.32367 10.2317V10.2317ZM11.6589 7.339C11.6588 8.36443 11.2959 9.3567 10.6347 10.1399C9.97337 10.9232 9.05638 11.4468 8.04621 11.618V13.1243H9.4913C9.68293 13.1243 9.86671 13.2005 10.0022 13.3361C10.1377 13.4718 10.2138 13.6557 10.2138 13.8475C10.2138 14.0393 10.1377 14.2232 10.0022 14.3589C9.86671 14.4945 9.68293 14.5707 9.4913 14.5707H8.04621V16.7402C8.04621 16.932 7.97009 17.1159 7.83458 17.2515C7.69908 17.3871 7.5153 17.4633 7.32367 17.4633C7.13204 17.4633 6.94825 17.3871 6.81275 17.2515C6.67725 17.1159 6.60112 16.932 6.60112 16.7402V14.5707H5.15603C4.9644 14.5707 4.78062 14.4945 4.64512 14.3589C4.50961 14.2232 4.43349 14.0393 4.43349 13.8475C4.43349 13.6557 4.50961 13.4718 4.64512 13.3361C4.78062 13.2005 4.9644 13.1243 5.15603 13.1243H6.60112V11.618C5.53171 11.4338 4.57015 10.855 3.90628 9.99585C3.24241 9.13674 2.92446 8.05975 3.0152 6.97748C3.10594 5.89521 3.59877 4.88631 4.39641 4.14995C5.19405 3.41358 6.23853 3.00327 7.32367 3C8.47345 3 9.57614 3.45714 10.3892 4.27086C11.2022 5.08458 11.6589 6.18822 11.6589 7.339ZM15.9942 10.5549V14.0963C18.2131 15.1073 20.664 16.9123 22.8006 19.1273C24.9364 21.3431 26.8049 24.0181 27.81 26.8001C28.6149 25.7855 29 24.5323 29 23.279V22.6614C27.9566 20.0067 25.7955 17.3505 23.2095 15.1159C21.7828 13.8815 20.2413 12.7864 18.6062 11.8458C18.4686 11.7705 18.3318 11.6938 18.1958 11.6158C17.4819 11.2221 16.7469 10.868 15.9942 10.5549V10.5549ZM23.2428 13.2625C23.5513 13.5091 23.8548 13.7614 24.1539 14.0203C26.0325 15.6438 27.7442 17.5205 29 19.5106V10.9548C26.802 12.5299 25.0188 13.2588 23.2428 13.2625ZM26.625 27.8061C26.6337 27.8321 26.6431 27.8567 26.6539 27.8813C25.7948 28.4757 24.6915 28.8814 23.3295 28.9993C22.6733 27.5988 21.894 26.2595 21.0007 24.9973C19.4458 22.7981 17.6488 20.9815 15.9942 19.9445V15.7031C17.8584 16.6628 19.9162 18.219 21.7601 20.1318C23.94 22.3924 25.7666 25.0963 26.625 27.8061V27.8061ZM15.9942 21.7061V23.2783C15.9942 25.5982 17.7912 28.6449 21.724 29C21.1694 27.8983 20.5335 26.8395 19.8215 25.8325C18.5889 24.0897 17.2363 22.6578 15.9942 21.7061Z" fill="#4B4B4B"/>
</svg>
