<svg width="16" height="16" viewBox="0 0 16 16" fill="none" xmlns="http://www.w3.org/2000/svg">
<path d="M6.5 13C7.88314 13.0022 9.23062 12.5613 10.345 11.742H10.344C10.374 11.782 10.406 11.82 10.442 11.857L14.292 15.707C14.4795 15.8946 14.7339 16.0001 14.9991 16.0002C15.2644 16.0003 15.5189 15.895 15.7065 15.7075C15.8941 15.52 15.9996 15.2656 15.9997 15.0004C15.9998 14.7351 15.8945 14.4806 15.707 14.293L11.857 10.443C11.8212 10.4068 11.7828 10.3734 11.742 10.343C12.5611 9.22927 13.002 7.88249 13 6.5C12.9995 4.77626 12.3145 3.12326 11.0956 1.90439C9.87674 0.68552 8.22374 0.000530138 6.5 0C4.77609 0 3.12279 0.684819 1.90381 1.90381C0.684819 3.12279 0 4.77609 0 6.5C0 8.22391 0.684819 9.87721 1.90381 11.0962C3.12279 12.3152 4.77609 13 6.5 13ZM6.5 4.482C8.164 2.809 12.325 5.736 6.5 9.5C0.675 5.736 4.836 2.81 6.5 4.482Z" fill="#4B4B4B"/>
</svg>
