<svg width="32" height="32" viewBox="0 0 32 32" fill="none" xmlns="http://www.w3.org/2000/svg">
<path d="M28.888 16.3693C28.9771 16.0773 29.0532 15.7814 29.116 15.4826C29.12 15.46 29.1213 15.4386 29.1266 15.416C29.1533 15.2853 29.1653 15.1506 29.1866 15.0186C29.22 14.8093 29.26 14.6013 29.28 14.3906C29.4387 12.8191 29.2454 11.232 28.7143 9.74441C28.1832 8.25687 27.3274 6.90626 26.2093 5.79063C25.2197 4.79891 24.0439 4.01242 22.7496 3.47632C21.4552 2.94022 20.0676 2.66505 18.6666 2.66663V13.3333H8.68929L7.54529 10.6666H2.66663V13.3333H5.78796L8.22529 19.0213C7.37081 19.3734 6.63995 19.971 6.12516 20.7386C5.61038 21.5061 5.3348 22.4091 5.33329 23.3333C5.33329 25.9066 7.42663 28 9.99996 28C12.3453 28 14.272 26.2546 14.5986 24H17.4013C17.728 26.2546 19.6546 28 22 28C24.5733 28 26.6666 25.9066 26.6666 23.3333C26.6666 22.4933 26.4253 21.716 26.036 21.0333C26.092 20.9786 26.1546 20.9306 26.2106 20.8746C26.6906 20.3933 27.128 19.8626 27.5133 19.296C27.8973 18.7226 28.228 18.1146 28.4946 17.484C28.516 17.4346 28.5293 17.3826 28.5493 17.3333H28.5506L28.5706 17.2773C28.688 16.984 28.7946 16.6893 28.884 16.3866L28.888 16.3693V16.3693ZM9.99996 25.3333C8.89729 25.3333 7.99996 24.436 7.99996 23.3333C7.99996 22.2306 8.89729 21.3333 9.99996 21.3333C11.1026 21.3333 12 22.2306 12 23.3333C12 24.436 11.1026 25.3333 9.99996 25.3333ZM22 25.3333C20.8973 25.3333 20 24.436 20 23.3333C20 22.2306 20.8973 21.3333 22 21.3333C23.1026 21.3333 24 22.2306 24 23.3333C24 24.436 23.1026 25.3333 22 25.3333Z" fill="#4B4B4B"/>
</svg>
