<svg width="32" height="32" viewBox="0 0 32 32" fill="none" xmlns="http://www.w3.org/2000/svg">
<path d="M28.5341 4H3.46592C2.65975 4 2 4.8503 2 5.69113C2 6.53196 2.65975 7.38158 3.46592 7.38158H3.82V10.7638H28.2156V7.38158H28.5341C29.3408 7.38158 30 6.53196 30 5.69113C30 4.8503 29.3408 4 28.5341 4V4ZM16 9.08691C15.5952 9.08691 15.2673 8.69524 15.2673 8.21294C15.2673 7.73063 15.5952 7.33896 16 7.33896C16.4054 7.33896 16.7327 7.73063 16.7327 8.21294C16.7327 8.69524 16.4054 9.08691 16 9.08691ZM3.82 17.5277H28.2156V12.1174H3.82V17.5277ZM16 13.8924C16.4054 13.8924 16.7327 14.2834 16.7327 14.7657C16.7327 15.2487 16.4054 15.6397 16 15.6397C15.5952 15.6397 15.2673 15.2487 15.2673 14.7657C15.2668 14.2834 15.5952 13.8924 16 13.8924ZM3.82 22.1931V26.126C3.82 26.6063 3.87192 27 4.275 27H7.20567C7.60875 27 7.79133 26.6063 7.79133 26.126V23.6164H24.2442V26.126C24.2442 26.6063 24.3912 27 24.7937 27H27.725C28.1269 27 28.215 26.6063 28.215 26.126V18.8819H3.82V22.1931V22.1931ZM16 20.4459C16.4054 20.4459 16.7327 20.8375 16.7327 21.3192C16.7327 21.8028 16.4054 22.1925 16 22.1925C15.5952 22.1925 15.2673 21.8028 15.2673 21.3192C15.2668 20.8382 15.5952 20.4459 16 20.4459Z" fill="#4B4B4B"/>
</svg>
