<svg width="32" height="32" viewBox="0 0 32 32" fill="none" xmlns="http://www.w3.org/2000/svg">
<path d="M3.99998 18.0002L2.99998 16.0002H9.99998L9.19998 14.0002H2.66665L1.66665 12.0002H12.0666L11.2666 10.0002H1.47998L0.333313 8.00016H5.33331C5.33331 7.29292 5.61426 6.61464 6.11436 6.11454C6.61446 5.61445 7.29274 5.3335 7.99998 5.3335H24V10.6668H28L32 16.0002V22.6668H29.3333C29.3333 23.7277 28.9119 24.7451 28.1617 25.4953C27.4116 26.2454 26.3942 26.6668 25.3333 26.6668C24.2724 26.6668 23.255 26.2454 22.5049 25.4953C21.7547 24.7451 21.3333 23.7277 21.3333 22.6668H16C16 23.7277 15.5786 24.7451 14.8284 25.4953C14.0783 26.2454 13.0608 26.6668 12 26.6668C10.9391 26.6668 9.9217 26.2454 9.17155 25.4953C8.42141 24.7451 7.99998 23.7277 7.99998 22.6668H5.33331V18.0002H3.99998ZM25.3333 24.6668C25.8637 24.6668 26.3725 24.4561 26.7475 24.081C27.1226 23.706 27.3333 23.1973 27.3333 22.6668C27.3333 22.1364 27.1226 21.6277 26.7475 21.2526C26.3725 20.8775 25.8637 20.6668 25.3333 20.6668C24.8029 20.6668 24.2942 20.8775 23.9191 21.2526C23.544 21.6277 23.3333 22.1364 23.3333 22.6668C23.3333 23.1973 23.544 23.706 23.9191 24.081C24.2942 24.4561 24.8029 24.6668 25.3333 24.6668ZM27.3333 12.6668H24V16.0002H29.9466L27.3333 12.6668ZM12 24.6668C12.5304 24.6668 13.0391 24.4561 13.4142 24.081C13.7893 23.706 14 23.1973 14 22.6668C14 22.1364 13.7893 21.6277 13.4142 21.2526C13.0391 20.8775 12.5304 20.6668 12 20.6668C11.4695 20.6668 10.9608 20.8775 10.5858 21.2526C10.2107 21.6277 9.99998 22.1364 9.99998 22.6668C9.99998 23.1973 10.2107 23.706 10.5858 24.081C10.9608 24.4561 11.4695 24.6668 12 24.6668Z" fill="black"/>
</svg>
