<svg width="67" height="30" viewBox="0 0 67 30" fill="none" xmlns="http://www.w3.org/2000/svg">
<g clip-path="url(#clip0_97_1231)">
<path d="M25.3434 0.384211L16.6041 21.4258H10.9027L6.60199 4.63263C6.34125 3.60079 6.11467 3.22105 5.32123 2.78474C4.0243 2.07368 1.88256 1.40868 0 0.995L0.126981 0.384211H9.30615C10.4743 0.384211 11.5261 1.16921 11.7936 2.52842L14.066 14.7055L19.6761 0.384211H25.3434ZM33.0509 0.384211L28.5914 21.4258H23.1972L27.6572 0.384211H33.0512H33.0509ZM47.6827 14.5558C47.7051 9.00342 40.0758 8.69526 40.1256 6.21447C40.1439 5.46026 40.8557 4.65737 42.4139 4.45211C43.1857 4.35132 45.318 4.27105 47.7333 5.39421L48.6782 0.929474C47.3805 0.45579 45.7104 0 43.6331 0C38.3009 0 34.5502 2.85842 34.5202 6.95474C34.4852 9.98474 37.1993 11.6734 39.2404 12.6826C41.3428 13.7132 42.0478 14.3755 42.0382 15.2966C42.023 16.7084 40.359 17.3334 38.812 17.3566C36.0992 17.4 34.5267 16.6166 33.2723 16.0268L32.2932 20.6395C33.5552 21.2232 35.881 21.7303 38.29 21.7561C43.9585 21.7561 47.666 18.9305 47.6827 14.5561V14.5558ZM61.7628 21.4258H66.75L62.393 0.384211H57.7917C56.7539 0.384211 55.8817 0.992105 55.4948 1.92658L47.4014 21.4258H53.0655L54.189 18.2826H61.1091L61.763 21.4258H61.7628ZM55.7422 13.9708L58.5823 6.06895L60.2137 13.9708H55.742H55.7422ZM39.9543 27.2176H37.7625V29.2763H40.214V29.8953H37.0241V24.1842H40.0883V24.8032H37.7625V26.6076H39.954V27.2182L39.9543 27.2176ZM41.3464 23.8792H42.0848V29.895H41.3464V23.8792ZM43.9481 27.98C43.9648 28.9887 44.5947 29.4037 45.3415 29.4037C45.8708 29.4037 46.198 29.3105 46.4671 29.1921L46.6012 29.7261C46.3409 29.8445 45.8878 29.9884 45.2409 29.9884C43.9903 29.9884 43.2433 29.1497 43.2433 27.9124C43.2433 26.6755 43.9648 25.7092 45.1488 25.7092C46.4838 25.7092 46.828 26.8789 46.828 27.6329C46.828 27.7853 46.8194 27.8953 46.8024 27.9803H43.9481V27.98ZM46.1141 27.4463C46.1227 26.9805 45.9211 26.2432 45.0899 26.2432C44.3343 26.2432 44.0151 26.9295 43.9562 27.4463H46.1141ZM50.8476 29.7511C50.6546 29.8445 50.2262 29.9887 49.6808 29.9887C48.455 29.9887 47.6574 29.1497 47.6574 27.8955C47.6574 26.6329 48.5134 25.7095 49.8401 25.7095C50.2766 25.7095 50.6627 25.8192 50.8643 25.9297L50.6969 26.4974C50.5198 26.4042 50.2429 26.3021 49.8401 26.3021C48.9079 26.3021 48.4047 27.0055 48.4047 27.8534C48.4047 28.8021 49.0091 29.3868 49.8151 29.3868C50.2348 29.3868 50.5118 29.2853 50.7217 29.1921L50.8476 29.7511ZM52.92 24.8111V25.7939H53.9775V26.3613H52.92V28.5732C52.92 29.0821 53.0629 29.3697 53.4741 29.3697C53.6753 29.3697 53.7932 29.3532 53.9025 29.3187L53.9361 29.8871C53.7932 29.9376 53.5666 29.9884 53.2811 29.9884C52.9367 29.9884 52.6595 29.8697 52.4835 29.6753C52.2819 29.4461 52.198 29.0821 52.198 28.5989V26.3613H51.568V25.7939H52.198V25.0316L52.9202 24.8113L52.92 24.8111ZM55.0093 27.0737C55.0093 26.5905 55.0004 26.1755 54.9757 25.7939H55.6223L55.6562 26.6071H55.6807C55.8658 26.0568 56.3187 25.7092 56.8139 25.7092C56.8898 25.7092 56.9487 25.7179 57.016 25.7261V26.4297C56.9404 26.4124 56.865 26.4124 56.7636 26.4124C56.2437 26.4124 55.8737 26.8021 55.7733 27.3618C55.756 27.4768 55.7475 27.5929 55.748 27.7092V29.8955H55.0093V27.0737ZM61.5568 27.8105C61.5568 29.3274 60.507 29.9884 59.5334 29.9884C58.4417 29.9884 57.5857 29.1747 57.5857 27.8787C57.5857 26.5142 58.4839 25.7095 59.6007 25.7095C60.7675 25.7095 61.5568 26.5647 61.5568 27.8108V27.8105ZM58.3411 27.8532C58.3411 28.7513 58.8448 29.4295 59.5668 29.4295C60.2724 29.4295 60.8009 28.7595 60.8009 27.8361C60.8009 27.1413 60.4567 26.2682 59.5835 26.2682C58.7191 26.2682 58.3411 27.0821 58.3411 27.8532ZM62.6889 26.9039C62.6889 26.4721 62.6801 26.1329 62.655 25.7942H63.31L63.352 26.4721H63.3687C63.5702 26.0905 64.0404 25.7095 64.712 25.7095C65.2742 25.7095 66.1477 26.0484 66.1477 27.4545V29.8953H65.409V27.5311C65.409 26.8705 65.1655 26.3192 64.4688 26.3192C63.99 26.3192 63.612 26.6668 63.4782 27.0818C63.4443 27.1753 63.4276 27.3021 63.4276 27.4295V29.8953H62.6889V26.9039Z" fill="#1A1F71"/>
</g>
<defs>
<clipPath id="clip0_97_1231">
<rect width="66.75" height="30" fill="white"/>
</clipPath>
</defs>
</svg>
