<svg width="98" height="98" viewBox="0 0 98 98" fill="none" xmlns="http://www.w3.org/2000/svg">
<path d="M25.6919 84.2268L27.281 85.0216C33.903 88.9944 41.319 90.8485 48.7354 90.8485C72.0435 90.8485 91.1137 71.7783 91.1137 48.4701C91.1137 37.346 86.6108 26.4864 78.6651 18.5404C70.7191 10.5943 60.1242 6.0918 48.7354 6.0918C25.4273 6.0918 6.35665 25.162 6.62169 48.7352C6.62169 56.6809 9.00547 64.3623 12.9783 70.9835L14.0377 72.573L9.80019 88.2001L25.6919 84.2268Z" fill="#00E676"/>
<path d="M83.1676 14.3027C74.1622 5.03259 61.7136 0 49 0C21.9841 0 0.265033 21.9837 0.529687 48.735C0.529687 57.2107 2.91347 65.4218 6.88668 72.8378L0 98L25.6919 91.3783C32.8432 95.3516 40.7889 97.2057 48.7353 97.2057C75.4866 97.2057 97.2057 75.2216 97.2057 48.4707C97.2057 35.492 92.1731 23.3081 83.168 14.3027H83.1676ZM49 88.9949C41.8487 88.9949 34.6973 87.1412 28.6054 83.433L27.0163 82.6383L11.6542 86.6112L15.6271 71.5141L14.5677 69.9247C2.91347 51.1195 8.47574 26.2216 27.546 14.5673C46.6162 2.91347 71.2487 8.47575 82.903 27.546C94.5568 46.6162 88.9946 71.2487 69.9247 82.903C63.8324 86.8758 56.4164 88.9946 49 88.9946V88.9949ZM72.3081 59.5952L69.3946 58.2708C69.3946 58.2708 65.1571 56.4168 62.5083 55.0923C62.2433 55.0923 61.9786 54.8273 61.7136 54.8273C60.9189 54.8273 60.3892 55.0923 59.8595 55.3574C59.8595 55.3574 59.5949 55.622 55.8867 59.8599C55.6216 60.3896 55.092 60.6546 54.5623 60.6546H54.2972C54.0326 60.6546 53.5029 60.3896 53.2379 60.1249L51.9135 59.5952C49 58.2708 46.3516 56.6814 44.2324 54.5627C43.7027 54.033 42.908 53.5033 42.3783 52.9736C40.5243 51.1195 38.6702 49.0004 37.3461 46.6166L37.0811 46.0869C36.8164 45.8219 36.8164 45.5572 36.5514 45.0275C36.5514 44.4979 36.5514 43.9682 36.8164 43.7031C36.8164 43.7031 37.8758 42.3787 38.6702 41.5844C39.2002 41.0543 39.4649 40.26 39.9946 39.7303C40.5243 38.9356 40.7893 37.8762 40.5243 37.0815C40.2596 35.7571 37.0811 28.6057 36.2868 27.0167C35.7567 26.222 35.2274 25.9573 34.4327 25.6923H31.5192C30.9891 25.6923 30.4598 25.9573 29.9298 25.9573L29.6647 26.222C29.135 26.487 28.6054 27.0167 28.0757 27.2813C27.546 27.8114 27.2809 28.3407 26.7513 28.8708C24.8972 31.2545 23.8378 34.168 23.8378 37.0815C23.8378 39.2002 24.3675 41.3194 25.1622 43.1734L25.4272 43.9682C27.811 49.0004 30.9891 53.5033 35.2274 57.4761L36.2868 58.5355C37.0811 59.3302 37.8758 59.8599 38.4055 60.6542C43.9678 65.4222 50.3244 68.8653 57.4757 70.7194C58.2705 70.9841 59.3298 70.9841 60.1245 71.2491H62.773C64.0974 71.2491 65.6865 70.7194 66.7462 70.1897C67.5405 69.6601 68.0702 69.6601 68.5999 69.1304L69.13 68.6003C69.6597 68.0706 70.1894 67.806 70.719 67.2763C71.2487 66.7466 71.7784 66.2169 72.0434 65.6868C72.5731 64.6275 72.8378 63.3031 73.1028 61.979V60.1249C73.1028 60.1249 72.8378 59.8599 72.3081 59.5952Z" fill="white"/>
</svg>
